<svg width="135" height="86" viewBox="0 0 135 86" fill="none" xmlns="http://www.w3.org/2000/svg">
<path d="M44.9858 40.833L78.2944 40.833V30.3558L44.9858 30.3558V40.833Z" fill="#C7C7C7"/>
<path d="M78.2944 30.3574V40.8346H130.215V39.8124H129.096V31.3797H130.215V30.3574H78.2944Z" fill="#A6A6A6"/>
<path d="M79.6579 39.7461L129.154 39.7461V31.4437L79.6579 31.4437V39.7461Z" fill="white"/>
<path d="M79.656 39.7464C91.9941 39.7123 116.82 39.6702 129.154 39.6562L129.06 39.7464V31.444C121.551 31.7306 99.7705 31.4079 92.0418 31.5021L79.6663 31.474C79.7016 31.2956 79.6663 39.7845 79.6663 39.7464H79.656ZM79.656 39.7464C79.656 39.7183 79.627 31.442 79.627 31.4159C79.627 31.3899 92.0231 31.3899 92.0314 31.3858L129.154 31.3438H129.257V31.444L129.247 39.7464V39.8366H129.154C116.818 39.8245 91.99 39.7824 79.656 39.7464Z" fill="#DBDBDB"/>
<path d="M111.39 37.9101C115.174 37.9583 118.959 37.9917 122.743 38.0104L129.154 38.0264V37.7959L122.743 37.8119C118.959 37.8253 115.174 37.858 111.39 37.9101Z" fill="#DBDBDB"/>
<path d="M79.6558 35.9478V36.1603L87.9192 36.1823L99.8967 36.1523C103.681 36.1349 107.466 36.1022 111.25 36.0541C107.466 36.006 103.681 35.9732 99.8967 35.9558L87.9192 35.9258L79.6558 35.9478Z" fill="#DBDBDB"/>
<path d="M79.6558 32.835V33.0915L91.4696 33.0615C95.2569 33.0441 99.0414 33.0114 102.823 32.9632C99.0387 32.9151 95.2541 32.8824 91.4696 32.865L79.6558 32.835Z" fill="#DBDBDB"/>
<path d="M79.6558 37.9326V38.1451H82.8289C86.6135 38.1291 90.3987 38.0963 94.1847 38.0469C90.3973 38.0014 86.6121 37.9687 82.8289 37.9487L79.6558 37.9326Z" fill="#DBDBDB"/>
<path d="M111.01 34.3545C114.796 34.4 118.581 34.4327 122.366 34.4528L129.154 34.4708V34.2383L122.366 34.2563C118.579 34.2724 114.793 34.3051 111.01 34.3545Z" fill="#DBDBDB"/>
<path d="M125.86 35.2055C123.256 35.1923 120.649 35.1824 118.04 35.1758H109.794H101.758C99.1508 35.1758 96.5442 35.1857 93.9382 35.2055C96.5456 35.2187 99.1522 35.2286 101.758 35.2352H109.794H118.04C120.648 35.2286 123.254 35.2187 125.86 35.2055Z" fill="#DBDBDB"/>
<path d="M122.598 22.5703H89.2898V30.3576H122.598V22.5703Z" fill="#EBEBEB"/>
<path d="M89.2875 30.3576V22.5703H37.3669V23.33H38.4861V29.5979H37.3669V30.3576H89.2875Z" fill="#DBDBDB"/>
<path d="M87.9256 23.3779H38.4299V29.5496H87.9256V23.3779Z" fill="white"/>
<path d="M87.9254 23.3783C75.5873 23.4144 50.7617 23.4565 38.4298 23.4705L38.5251 23.3783V29.55C37.8702 29.2734 63.3175 29.5681 63.1704 29.4799C69.3343 29.4799 81.7574 29.5079 87.9192 29.528C87.884 29.6603 87.9192 23.3523 87.9192 23.3783H87.9254ZM87.9254 23.3783L87.9482 29.55V29.5721H87.9254C81.7512 29.5921 69.3488 29.6182 63.1766 29.6202L38.4298 29.6502H38.3262V29.55V23.3783V23.2861H38.4215C50.7576 23.3002 75.5852 23.3423 87.9172 23.3783H87.9254Z" fill="#DBDBDB"/>
<path d="M56.1943 24.7434C52.4097 24.7073 48.6245 24.6826 44.8385 24.6693L38.428 24.6572V24.8276L44.8385 24.8176C48.6189 24.8082 52.4042 24.7835 56.1943 24.7434Z" fill="#DBDBDB"/>
<path d="M87.9254 26.2066V26.0483L79.6641 26.0322L67.6866 26.0543C63.902 26.0676 60.1168 26.0917 56.3308 26.1264C60.1154 26.1625 63.9006 26.1872 67.6866 26.2006L79.6641 26.2226L87.9254 26.2066Z" fill="#DBDBDB"/>
<path d="M87.9256 28.5149V28.3145L76.1119 28.3365C72.3259 28.3499 68.5407 28.3746 64.7561 28.4107C68.5407 28.4441 72.3259 28.4681 76.1119 28.4828L87.9256 28.5149Z" fill="#DBDBDB"/>
<path d="M87.9255 24.7267V24.5684H84.7524C80.9678 24.5804 77.1832 24.6051 73.3987 24.6425C77.1832 24.6773 80.9678 24.7013 84.7524 24.7147L87.9255 24.7267Z" fill="#DBDBDB"/>
<path d="M56.5735 27.387C52.7876 27.3536 49.0017 27.3288 45.2157 27.3128L38.428 27.3008V27.4732L45.2157 27.4591C49.003 27.4471 52.789 27.4231 56.5735 27.387Z" fill="#DBDBDB"/>
<path d="M41.7212 26.7534C44.3285 26.764 46.9351 26.7713 49.5411 26.7753H57.79H65.8234C68.4307 26.7753 71.0374 26.768 73.6433 26.7534C71.0374 26.7414 68.4307 26.7341 65.8234 26.7314H57.79H49.5411C46.9338 26.7354 44.3271 26.7427 41.7212 26.7534Z" fill="#DBDBDB"/>
<path d="M58.1571 6.89746H11.9382V40.8347H58.1571V6.89746Z" fill="#EBEBEB"/>
<path d="M75.7222 6.89746H58.157V40.8347H75.7222V6.89746Z" fill="#DBDBDB"/>
<path d="M11.9382 23.7344H58.1571L22.0629 24.6143L11.9382 23.7344Z" fill="#DBDBDB"/>
<path d="M58.1571 36.7031H11.9382L48.0346 37.5831L58.1571 36.7031Z" fill="#DBDBDB"/>
<path d="M11.9382 14.1758H41.2157L15.1901 14.8934L11.9382 14.1758Z" fill="#DBDBDB"/>
<path d="M58.157 31.668H28.8816L54.9051 32.3856L58.157 31.668Z" fill="#DBDBDB"/>
<path d="M62.0371 9.00781H32.7617L58.7873 9.72741L62.0371 9.00781Z" fill="#DBDBDB"/>
<path d="M31.98 11.1592H65.0006L59.4957 11.5901L31.98 11.1592Z" fill="#DBDBDB"/>
<path d="M16.4319 27.4014H49.4525L43.9477 27.8323L16.4319 27.4014Z" fill="#DBDBDB"/>
<path d="M36.7368 17.4307H58.1571L61.9852 18.5812L36.7368 17.4307Z" fill="#EBEBEB"/>
<path d="M41.8997 28.8984H63.3199L67.1459 30.049L41.8997 28.8984Z" fill="#EBEBEB"/>
<path d="M37.1885 33.9512H58.6087L62.4368 35.1017L37.1885 33.9512Z" fill="#EBEBEB"/>
<path d="M6.03735 17.4307H27.4576L31.2836 18.5812L6.03735 17.4307Z" fill="#DBDBDB"/>
<path d="M33.5224 10.7998H12.1042L8.27612 11.9483L33.5224 10.7998Z" fill="#EBEBEB"/>
<path d="M34.6807 31.0928H13.2605L9.43237 32.2433L34.6807 31.0928Z" fill="#EBEBEB"/>
<path d="M33.5224 32.8027H12.1042L8.27612 33.9513L33.5224 32.8027Z" fill="#DBDBDB"/>
<path d="M58.157 28.8984H75.3575L79.1855 30.049L58.157 28.8984Z" fill="#DBDBDB"/>
<path d="M64.1614 23.735H77.5006L75.7223 22.7949L64.1614 23.735Z" fill="#DBDBDB"/>
<path d="M1.89844 40.8386C44.3286 40.7163 91.9237 40.7143 134.354 40.8386C91.9237 40.9628 44.3286 40.9608 1.89844 40.8386Z" fill="#263238"/>
<path d="M87.2871 69.2151L107.87 64.3223L134.022 67.8461L112.55 73.1017L87.2871 69.2151Z" fill="#DBDBDB"/>
<path d="M87.2871 69.2152L107.864 64.3003C107.864 64.3003 134.034 67.8 134.034 67.798L134.298 67.8321L134.034 67.8983L112.55 73.1299C112.55 73.1299 87.2954 69.2132 87.2871 69.2152ZM87.2871 69.2152C87.2871 69.2152 112.589 73.0777 112.544 73.0757L134.01 67.798V67.8963C134.01 67.8963 107.837 64.3424 107.876 64.3444L87.2871 69.2152Z" fill="#DBDBDB"/>
<path d="M111.731 71.7387C112.998 71.3618 114.303 71.011 115.613 70.6643C116.923 70.3175 118.254 69.9848 119.588 69.6621C120.923 69.3393 122.283 69.0126 123.647 68.7059L125.703 68.2469C126.403 68.1026 127.089 67.9503 127.798 67.814C127.176 68.0044 126.517 68.1788 125.877 68.3632L123.918 68.8863C122.612 69.2371 121.278 69.5679 119.943 69.8886C118.608 70.2093 117.248 70.538 115.885 70.8447C114.521 71.1514 113.145 71.458 111.731 71.7387Z" fill="#C7C7C7"/>
<path d="M115.133 69.7484C116.583 69.2673 118.15 68.8544 119.738 68.4615C121.325 68.0686 122.963 67.6978 124.708 67.4092C123.257 67.8922 121.692 68.3032 120.103 68.696C118.513 69.0889 116.867 69.4517 115.133 69.7484Z" fill="#C7C7C7"/>
<path d="M105.53 70.9433C106.797 70.5664 108.102 70.2156 109.412 69.8689C110.722 69.5221 112.053 69.1894 113.387 68.8666C114.722 68.5439 116.082 68.2172 117.444 67.9105L119.502 67.4535C120.2 67.3092 120.888 67.1569 121.597 67.0186C120.975 67.209 120.316 67.3854 119.676 67.5678L117.717 68.0929C116.409 68.4417 115.077 68.7724 113.742 69.0952C112.407 69.4179 111.048 69.7446 109.684 70.0513C108.32 70.358 106.944 70.6626 105.53 70.9433Z" fill="#C7C7C7"/>
<path d="M104.738 69.9788C106.892 69.3254 109.153 68.7441 111.441 68.1748C113.729 67.6056 116.063 67.0764 118.488 66.6094C116.334 67.2628 114.073 67.8441 111.787 68.4134C109.501 68.9826 107.172 69.5118 104.738 69.9788Z" fill="#C7C7C7"/>
<path d="M107.428 68.1647C108.616 67.7477 109.916 67.401 111.236 67.0723C112.556 66.7435 113.93 66.4469 115.396 66.2144C114.208 66.6333 112.908 66.978 111.59 67.3068C110.272 67.6355 108.896 67.9322 107.428 68.1647Z" fill="#C7C7C7"/>
<path d="M2.22998 48.668L30.7903 43.4404L58.3496 51.2277L29.9323 56.6437L2.22998 48.668Z" fill="#EBEBEB"/>
<path d="M2.22998 48.6677L30.7924 43.4141C30.7924 43.4141 58.3579 51.1813 58.3579 51.1793L58.5652 51.2374L58.3579 51.2775L29.9323 56.6734C29.9219 56.6734 2.23827 48.6737 2.22998 48.6737V48.6677ZM2.22998 48.6677L29.9406 56.6173C29.8722 56.6313 58.3579 51.1733 58.3351 51.1793V51.2755L30.7841 43.4582C30.838 43.4461 2.22169 48.6697 2.22998 48.6697V48.6677Z" fill="#DBDBDB"/>
<path d="M29.5322 55.0559C31.3976 54.639 33.2774 54.2542 35.1655 53.8673C37.0537 53.4805 38.9563 53.1116 40.861 52.7468C42.7657 52.382 44.6808 52.0252 46.6083 51.6865L49.4996 51.1774C50.4717 51.017 51.4354 50.8486 52.4158 50.6963C51.4872 50.9068 50.5504 51.0972 49.6095 51.2976L46.7783 51.8849C44.8922 52.2738 42.9875 52.6406 41.0849 53.0054C39.1822 53.3702 37.2651 53.727 35.3376 54.0658C33.4101 54.4045 31.4846 54.7473 29.5322 55.0559Z" fill="#DBDBDB"/>
<path d="M36.8523 52.2839C38.8876 51.7767 40.9975 51.3478 43.1136 50.9389C45.2297 50.53 47.3852 50.1572 49.5988 49.8545C47.5635 50.3616 45.4536 50.7906 43.3374 51.1995C41.2213 51.6084 39.0658 51.9812 36.8523 52.2839Z" fill="#DBDBDB"/>
<path d="M26.7153 52.8372C28.3423 52.4643 29.9921 52.1216 31.646 51.7808C33.3 51.4401 34.9622 51.1174 36.6368 50.7946C38.3115 50.4719 39.9882 50.1632 41.6815 49.8686L44.2205 49.4276C45.0765 49.2893 45.9221 49.143 46.7843 49.0127C45.9739 49.2011 45.149 49.3735 44.3303 49.5539L41.8536 50.069C40.1955 50.4118 38.5374 50.7325 36.8628 51.0552C35.1881 51.3779 33.5134 51.6846 31.8201 51.9813C30.1268 52.2779 28.4356 52.5726 26.7153 52.8372Z" fill="#DBDBDB"/>
<path d="M25.387 51.7126C26.8896 51.3638 28.415 51.0431 29.9467 50.7264C31.4783 50.4097 33.0203 50.109 34.5665 49.8124C36.1126 49.5157 37.6754 49.2271 39.2381 48.9565L41.5905 48.5556C42.3843 48.4293 43.1698 48.295 43.9699 48.1768C43.2216 48.3552 42.4569 48.5135 41.7024 48.6839L39.4101 49.1629C37.8826 49.4817 36.3365 49.7803 34.7903 50.077C33.2442 50.3736 31.6814 50.6603 30.1187 50.9329C28.556 51.2055 26.9829 51.462 25.387 51.7126Z" fill="#DBDBDB"/>
<path d="M18.2717 51.6908C20.1371 51.2738 22.0169 50.889 23.905 50.5001C25.7932 50.1113 27.6958 49.7465 29.6005 49.3796C31.5052 49.0128 33.4203 48.6601 35.3458 48.3193L38.2474 47.8102C39.2194 47.6518 40.1832 47.4814 41.1635 47.3291C40.235 47.5416 39.2982 47.73 38.3572 47.9304L35.5282 48.5117C33.6421 48.8986 31.7374 49.2654 29.8347 49.6322C27.9321 49.999 26.0149 50.3518 24.0874 50.6926C22.1599 51.0333 20.2241 51.3801 18.2717 51.6908Z" fill="#DBDBDB"/>
<path d="M18.0359 50.357C19.6815 49.9802 21.352 49.6334 23.0246 49.2886C24.6972 48.9439 26.3864 48.6172 28.0755 48.2864C29.7647 47.9557 31.4642 47.647 33.1762 47.3483L35.7462 46.9013C36.6105 46.761 37.4685 46.6127 38.339 46.4824C37.51 46.6728 36.6809 46.8452 35.8519 47.0296L33.3461 47.5488C31.6756 47.8956 29.9865 48.2203 28.2973 48.551C26.6081 48.8817 24.9065 49.1904 23.1946 49.4891C21.4826 49.7877 19.7748 50.0884 18.0359 50.357Z" fill="#DBDBDB"/>
<path d="M12.6406 50.0071C14.506 49.5902 16.3858 49.2053 18.276 48.8185C20.1662 48.4316 22.0668 48.0548 23.9798 47.698C25.8928 47.3412 27.7996 46.9764 29.7271 46.6377L32.6184 46.1285C33.5904 45.9682 34.5562 45.7998 35.5345 45.6475C34.606 45.8579 33.6692 46.0483 32.7303 46.2488L29.9012 46.8321C28.0151 47.2189 26.1104 47.5858 24.2057 47.9506C22.301 48.3154 20.3859 48.6722 18.4584 49.0109C16.5309 49.3497 14.5951 49.6984 12.6406 50.0071Z" fill="#DBDBDB"/>
<path d="M19.1838 47.3824C21.3497 46.8492 23.584 46.3962 25.8348 45.9633C28.0856 45.5303 30.3655 45.1314 32.7096 44.8047C30.5437 45.3379 28.3115 45.7889 26.0586 46.2238C23.8057 46.6588 21.5279 47.0517 19.1838 47.3824Z" fill="#DBDBDB"/>
<path d="M44.0798 75.3546L80.3751 68.7119L115.394 78.6078L79.2829 85.4891L44.0798 75.3546Z" fill="#EBEBEB"/>
<path d="M44.084 75.3548L80.3751 68.686C80.3751 68.686 115.402 78.5619 115.402 78.5599L115.609 78.618L115.402 78.6581L79.2829 85.5153C79.2725 85.5173 44.084 75.3548 44.084 75.3548ZM44.084 75.3548L79.2953 85.4652C79.231 85.4652 115.404 78.5559 115.387 78.5599V78.6561L80.3668 68.7361C80.4207 68.7201 44.0715 75.3648 44.0798 75.3508L44.084 75.3548Z" fill="#DBDBDB"/>
<path d="M78.7725 83.4729C81.1373 82.9437 83.5394 82.4486 85.9333 81.9615C88.3271 81.4745 90.75 81.0034 93.1687 80.5384C95.5874 80.0734 98.0227 79.6224 100.473 79.1894L104.147 78.544C105.391 78.3435 106.607 78.125 107.853 77.9326C106.674 78.2012 105.476 78.4478 104.288 78.7063L100.692 79.444C98.2963 79.9371 95.8755 80.4021 93.4568 80.8671C91.0381 81.3322 88.6028 81.7832 86.153 82.2141C83.7032 82.6451 81.2554 83.08 78.7725 83.4729Z" fill="#DBDBDB"/>
<path d="M88.0767 79.9491C90.6633 79.3057 93.3369 78.7605 96.0313 78.2414C98.7257 77.7222 101.461 77.2391 104.276 76.8623C101.689 77.5077 99.0137 78.0529 96.3194 78.5721C93.625 79.0912 90.8892 79.5643 88.0767 79.9491Z" fill="#DBDBDB"/>
<path d="M75.1953 80.6527C77.2679 80.1797 79.3592 79.7427 81.4608 79.3117C83.5624 78.8808 85.6826 78.4679 87.8029 78.059C89.9232 77.6501 92.06 77.2572 94.2114 76.8803L97.4405 76.3191C98.5265 76.1447 99.6022 75.9583 100.699 75.7939C99.6623 76.0345 98.626 76.253 97.5897 76.4815L94.4435 77.1349C92.344 77.5699 90.2216 77.9788 88.1014 78.3877C85.9811 78.7966 83.8422 79.1895 81.6908 79.5643C79.5395 79.9391 77.3798 80.326 75.1953 80.6527Z" fill="#DBDBDB"/>
<path d="M73.5149 79.2236C75.4238 78.7806 77.3637 78.3737 79.3182 77.9728C81.2726 77.5719 83.2229 77.1871 85.1877 76.8083C87.1526 76.4294 89.1257 76.0666 91.1237 75.7218L94.1165 75.2047C95.1238 75.0464 96.1207 74.874 97.1383 74.7236C96.187 74.9501 95.217 75.1526 94.2554 75.3671L91.3434 75.9684C89.4034 76.3693 87.4386 76.7521 85.4738 77.131C83.5089 77.5098 81.5358 77.8726 79.5379 78.2174C77.5399 78.5621 75.5336 78.9229 73.5149 79.2236Z" fill="#DBDBDB"/>
<path d="M64.4636 79.1952C66.8285 78.6661 69.2306 78.171 71.6244 77.6839C74.0183 77.1968 76.4412 76.7258 78.8599 76.2607C81.2786 75.7957 83.7139 75.3447 86.1575 74.9138L89.8322 74.2683C91.0757 74.0679 92.2924 73.8494 93.538 73.667C92.3587 73.9356 91.1607 74.1821 89.9731 74.4407L86.3772 75.1783C83.9813 75.6714 81.5605 76.1365 79.1417 76.6015C76.723 77.0665 74.2877 77.5175 71.8379 77.9485C69.3881 78.3794 66.9466 78.8024 64.4636 79.1952Z" fill="#DBDBDB"/>
<path d="M64.165 77.5016C66.2563 77.0245 68.3786 76.5815 70.5051 76.1466C72.6316 75.7116 74.7747 75.2927 76.9301 74.8778C79.0856 74.4628 81.237 74.066 83.4132 73.6871L86.6693 73.1098C87.7698 72.9335 88.8579 72.745 89.9668 72.5767C88.9305 72.8192 87.8631 73.0397 86.8102 73.2722L83.6267 73.9337C81.5023 74.3726 79.3551 74.7876 77.2017 75.2005C75.0482 75.6134 72.8948 76.0022 70.7186 76.3911C68.5424 76.78 66.3744 77.1608 64.165 77.5016Z" fill="#DBDBDB"/>
<path d="M57.3091 77.0564C59.6739 76.5272 62.076 76.0321 64.4699 75.545C66.8637 75.058 69.2866 74.5869 71.7053 74.1219C74.124 73.6569 76.5593 73.2059 79.0092 72.7729L82.6839 72.1275C83.9274 71.927 85.144 71.7085 86.3876 71.5161C85.2104 71.7847 84.0124 72.0313 82.8248 72.2898L79.2288 73.0275C76.8329 73.5206 74.4121 73.9856 71.9934 74.4506C69.5747 74.9156 67.1394 75.3666 64.6896 75.7976C62.2398 76.2286 59.7921 76.6635 57.3091 77.0564Z" fill="#DBDBDB"/>
<path d="M65.6243 73.7211C68.3767 73.0456 71.2203 72.4703 74.0742 71.9171C76.9282 71.3639 79.834 70.8588 82.8123 70.4438C80.0599 71.1213 77.2163 71.6966 74.3603 72.2478C71.5042 72.7991 68.6026 73.3102 65.6243 73.7211Z" fill="#DBDBDB"/>
<path d="M132.77 58.5198L65.5728 76.4756V63.5329L132.77 45.5771C136.331 51.9272 132.77 58.5198 132.77 58.5198Z" fill="#37474F"/>
<path d="M0 67.4975L65.5728 76.4754V73.1941L5.99602 66.1465L0 66.4953V67.4975Z" fill="#455A64"/>
<path d="M65.5751 63.5932C68.0249 69.2959 65.5751 76.4758 65.5751 76.4758L3.16309 66.9426V55.7559L65.5751 63.5932Z" fill="#455A64"/>
<path d="M64.0311 63.4004C66.4166 69.081 64.228 75.1986 64.228 75.1986L3.16309 66.8962V55.7515L64.0311 63.4004Z" fill="white"/>
<path d="M64.0309 63.4006C64.1117 63.6211 64.346 64.2424 64.4268 64.4609C64.9117 66.0214 65.1575 67.6422 65.1563 69.2716C65.1654 71.2816 64.8629 73.2815 64.2589 75.2047C64.2879 75.2929 3.16917 66.9645 3.14845 66.9865L3.05933 66.9745V66.8963V55.7516V55.6494L3.16296 55.6634L33.6094 59.518L64.0185 63.3966L64.0309 63.4006ZM64.0309 63.4006C49.0585 61.4543 17.7271 57.8623 3.25415 55.7556L3.26451 66.9003L3.17539 66.8001C3.17539 66.8222 64.3667 75.1366 64.1926 75.1887C64.5021 74.2343 64.7335 73.2578 64.8848 72.2682C65.347 69.3077 65.1688 66.2008 64.0288 63.4006H64.0309Z" fill="#DBDBDB"/>
<path d="M32.7097 60.5825C42.8986 61.7852 54.3103 63.2685 64.4639 64.7257C54.2751 63.523 42.8634 62.0377 32.7097 60.5825Z" fill="#DBDBDB"/>
<path d="M3.16309 59.8325C11.897 60.8347 21.5864 62.1056 30.2892 63.3704C21.5491 62.3681 11.8638 61.1013 3.16309 59.8325Z" fill="#DBDBDB"/>
<path d="M4.61816 60.9331C19.46 62.7371 36.0884 64.9059 50.8909 66.9685C36.0511 65.1645 19.4227 62.9957 4.61816 60.9331Z" fill="#DBDBDB"/>
<path d="M12.6409 64.7197C28.0361 66.5618 45.2863 68.7747 60.6442 70.8754C45.2511 69.0353 28.0009 66.8204 12.6409 64.7197Z" fill="#DBDBDB"/>
<path d="M22.9895 67.0767C36.4158 68.7003 51.4732 70.6606 64.8684 72.5408C51.4359 70.9212 36.3868 68.9568 22.9895 67.0767Z" fill="#DBDBDB"/>
<path d="M10.9226 67.0547C28.1251 69.1754 47.4003 71.689 64.5593 74.0522C47.3568 71.9335 28.0816 69.4179 10.9226 67.0547Z" fill="#DBDBDB"/>
<path d="M65.5748 63.593L132.77 45.5771L64.8681 42.6025L0 54.2363V55.3588L65.5748 63.593Z" fill="#455A64"/>
<path d="M67.2971 61.6127C75.6331 59.1693 84.195 56.9624 92.7486 55.0562C84.4147 57.5016 75.8528 59.7045 67.2971 61.6127Z" fill="#37474F"/>
<path d="M51.1768 60.4663C53.4981 60.5826 55.8961 60.8431 58.2008 61.1137C60.5055 61.3843 62.8848 61.7151 65.144 62.1661C62.8227 62.0518 60.4247 61.7892 58.122 61.5186C55.8194 61.248 53.438 60.9073 51.1768 60.4663Z" fill="#37474F"/>
<path d="M1.80322 54.4546C17.586 56.0942 33.4953 58.0285 49.1724 60.2194C33.3771 58.5837 17.47 56.6454 1.80322 54.4546Z" fill="#37474F"/>
<path d="M111.236 52.8777C117.794 50.8853 124.431 49.0699 131.148 47.4316C124.593 49.4241 117.956 51.2394 111.236 52.8777Z" fill="#455A64"/>
<path d="M76.3937 43.0052C75.5232 43.1696 71.9293 43.356 71.8568 42.6043C71.7449 41.4738 80.3399 33.4561 83.4239 31.9487C86.3567 30.5135 95.8056 27.3826 98.1394 27.3145L98.1601 34.5144C96.8398 34.8391 86.3214 33.8469 84.1121 34.9814C83.1524 35.4745 81.8819 37.5191 79.2953 40.7663C78.3855 41.9108 76.9077 42.907 76.3937 43.0052Z" fill="#F9B801"/>
<g opacity="0.3">
<path d="M76.3937 43.0052C75.5232 43.1696 71.9293 43.356 71.8568 42.6043C71.7449 41.4738 80.3399 33.4561 83.4239 31.9487C86.3567 30.5135 95.8056 27.3826 98.1394 27.3145L98.1601 34.5144C96.8398 34.8391 86.3214 33.8469 84.1121 34.9814C83.1524 35.4745 81.8819 37.5191 79.2953 40.7663C78.3855 41.9108 76.9077 42.907 76.3937 43.0052Z" fill="black"/>
</g>
<path d="M74.6091 43.0052C73.7365 43.1696 70.3955 43.356 70.3209 42.6043C70.211 41.4738 78.8061 33.4561 81.888 31.9487C84.8207 30.5135 95.8055 27.3826 98.1392 27.3145L98.16 34.5144C96.8397 34.8391 84.7876 33.8469 82.5782 34.9814C81.6186 35.4745 80.0911 37.5191 77.5086 40.7663C76.6008 41.9108 75.1231 42.907 74.6091 43.0052Z" fill="#F9B801"/>
<g opacity="0.2">
<path d="M74.6091 43.0052C73.7365 43.1696 70.3955 43.356 70.3209 42.6043C70.211 41.4738 78.8061 33.4561 81.888 31.9487C84.8207 30.5135 95.8055 27.3826 98.1392 27.3145L98.16 34.5144C96.8397 34.8391 84.7876 33.8469 82.5782 34.9814C81.6186 35.4745 80.0911 37.5191 77.5086 40.7663C76.6008 41.9108 75.1231 42.907 74.6091 43.0052Z" fill="black"/>
</g>
<path d="M108.498 52.558C109.249 52.8627 112.2 53.017 112.706 52.4017C113.469 51.4696 104.163 38.7875 98.6951 36.4864C93.582 34.3517 21.4453 20.8016 19.9572 20.5771L19.9033 26.2056C29.9533 27.725 93.7229 37.5508 97.6671 39.2124C100.239 40.2928 103.516 45.9935 105.87 49.9322C106.822 51.5317 107.628 52.2052 108.498 52.558Z" fill="#F9B801"/>
<g opacity="0.2">
<path d="M108.498 52.558C109.249 52.8627 112.2 53.017 112.706 52.4017C113.469 51.4696 104.163 38.7875 98.6951 36.4864C93.582 34.3517 21.4453 20.8016 19.9572 20.5771L19.9033 26.2056C29.9533 27.725 93.7229 37.5508 97.6671 39.2124C100.239 40.2928 103.516 45.9935 105.87 49.9322C106.822 51.5317 107.628 52.2052 108.498 52.558Z" fill="black"/>
</g>
<path d="M107.253 52.558C108.003 52.8627 110.954 53.017 111.46 52.4017C112.223 51.4696 102.985 38.4808 97.5197 36.1797C92.4046 34.045 21.4451 20.7936 19.957 20.5771L18.6575 26.2056C28.7075 27.725 92.4771 37.5508 96.4212 39.2124C98.9933 40.2928 102.27 45.9935 104.625 49.9322C105.576 51.5317 106.382 52.2052 107.253 52.558Z" fill="#F9B801"/>
<g opacity="0.1">
<path d="M107.253 52.558C108.003 52.8627 110.954 53.017 111.46 52.4017C112.223 51.4696 102.985 38.4808 97.5197 36.1797C92.4046 34.045 21.4451 20.7936 19.957 20.5771L18.6575 26.2056C28.7075 27.725 92.4771 37.5508 96.4212 39.2124C98.9933 40.2928 102.27 45.9935 104.625 49.9322C105.576 51.5317 106.382 52.2052 107.253 52.558Z" fill="black"/>
</g>
<g opacity="0.1">
<path d="M33.9286 23.1749L28.4694 27.715C23.9283 27.0134 20.4443 26.4822 18.6619 26.2116L19.9593 20.5771C20.3635 20.6373 25.9325 21.6696 33.9286 23.1749Z" fill="black"/>
<path d="M47.8897 30.7538L44.499 30.2146L41.3486 24.5781L46.3415 25.5322L47.8897 30.7538Z" fill="black"/>
<path d="M66.9864 29.5452L63.1521 33.1993L59.7468 32.6461L62.4702 28.6553C63.9832 28.9506 65.4886 29.2473 66.9864 29.5452Z" fill="black"/>
<path d="M97.0515 36.0136L95.7312 38.9982C95.097 38.8258 94.1416 38.6093 92.9125 38.3588L91.9612 34.7207C94.353 35.2659 96.1188 35.7089 97.0515 36.0136Z" fill="black"/>
</g>
<path d="M33.6676 55.5068C26.1523 55.1561 20.434 46.9238 20.919 37.1582C21.1491 32.4979 22.7429 28.1643 25.4041 24.9551C28.1545 21.6398 31.7048 19.9 35.4355 20.0824C39.1662 20.2648 42.5279 22.3093 44.9342 25.8672C47.2659 29.3028 48.4224 33.7667 48.1882 38.431C47.728 47.6715 41.8709 55.0278 34.8717 55.4948C34.4709 55.5209 34.0689 55.5249 33.6676 55.5068ZM27.3171 26.4424C24.9772 29.2587 23.5657 33.1072 23.3585 37.2744C22.9439 45.7332 27.6135 52.8509 33.7815 53.1376C39.9496 53.4242 45.3114 46.7755 45.7363 38.3047C45.9435 34.1375 44.9259 30.1787 42.8802 27.154C40.9092 24.2496 38.221 22.5759 35.3111 22.4416C35.0012 22.4235 34.6904 22.4235 34.3805 22.4416C31.8022 22.632 29.3234 24.0211 27.3171 26.4384V26.4424ZM20.9294 38.3989C20.5501 31.2551 21.3771 30.1366 21.0413 28.03C20.8817 27.0277 19.4226 26.0656 19.4226 26.0656L20.6973 20.9362C20.6973 20.9362 24.6704 21.3111 25.5865 21.3251C27.2156 21.3472 30.7328 20.1966 33.7961 20.1224C33.7961 20.1224 27.1368 23.0169 24.9958 26.707C22.8548 30.3972 20.9294 38.3949 20.9294 38.3949V38.3989Z" fill="#F9B801"/>
<path opacity="0.1" d="M33.6676 55.5068C26.1523 55.1561 20.434 46.9238 20.919 37.1582C21.1491 32.4979 22.7429 28.1643 25.4041 24.9551C28.1545 21.6398 31.7048 19.9 35.4355 20.0824C39.1662 20.2648 42.5279 22.3093 44.9342 25.8672C47.2659 29.3028 48.4224 33.7667 48.1882 38.431C47.728 47.6715 41.8709 55.0278 34.8717 55.4948C34.4709 55.5209 34.0689 55.5249 33.6676 55.5068ZM27.3171 26.4424C24.9772 29.2587 23.5657 33.1072 23.3585 37.2744C22.9439 45.7332 27.6135 52.8509 33.7815 53.1376C39.9496 53.4242 45.3114 46.7755 45.7363 38.3047C45.9435 34.1375 44.9259 30.1787 42.8802 27.154C40.9092 24.2496 38.221 22.5759 35.3111 22.4416C35.0012 22.4235 34.6904 22.4235 34.3805 22.4416C31.8022 22.632 29.3234 24.0211 27.3171 26.4384V26.4424ZM20.9294 38.3989C20.5501 31.2551 21.3771 30.1366 21.0413 28.03C20.8817 27.0277 19.4226 26.0656 19.4226 26.0656L20.6973 20.9362C20.6973 20.9362 24.6704 21.3111 25.5865 21.3251C27.2156 21.3472 30.7328 20.1966 33.7961 20.1224C33.7961 20.1224 27.1368 23.0169 24.9958 26.707C22.8548 30.3972 20.9294 38.3949 20.9294 38.3949V38.3989Z" fill="black"/>
<path d="M32.6457 55.5068C25.1284 55.1561 19.4101 46.9238 19.8951 37.1582C20.1252 32.4979 21.719 28.1643 24.3802 24.9551C27.1305 21.6398 30.6809 19.9 34.4115 20.0824C38.1422 20.2648 41.504 22.3093 43.9102 25.8672C46.2419 29.3028 47.3984 33.7667 47.1642 38.431C46.7041 47.6715 40.847 55.0278 33.8478 55.4948C33.4477 55.5209 33.0463 55.5249 32.6457 55.5068ZM26.2932 26.4424C23.9532 29.2627 22.5501 33.1112 22.3428 37.2785C21.9283 45.7372 26.5958 52.855 32.7638 53.1416C38.9319 53.4282 44.2937 46.7795 44.7186 38.3087C44.9258 34.1415 43.9082 30.1827 41.8625 27.158C39.8936 24.2536 37.2033 22.5799 34.2934 22.4456C33.9835 22.4275 33.6727 22.4275 33.3628 22.4456C30.7804 22.632 28.2995 24.0211 26.2932 26.4384V26.4424ZM19.9055 38.3989C19.5262 31.2551 20.3531 30.1366 20.0174 28.03C19.8578 27.0277 18.3987 26.0656 18.3987 26.0656L19.7314 20.3489C19.7314 20.3489 23.7708 21.0405 24.6849 21.0525C26.3139 21.0766 29.7088 20.1966 32.768 20.1305C32.768 20.1305 26.1087 23.0249 23.9677 26.715C21.8268 30.4052 19.9055 38.3949 19.9055 38.3949V38.3989Z" fill="#F9B801"/>
<path d="M23.7149 22.9643C23.6672 23.3191 22.9853 23.5236 22.1915 23.4213C21.3977 23.3191 20.7966 22.9483 20.8464 22.5955C20.8961 22.2427 21.5759 22.0363 22.3697 22.1385C23.1635 22.2407 23.7729 22.6095 23.7149 22.9643Z" fill="#A6A6A6"/>
<path d="M21.1946 22.6077C21.2588 22.4373 21.949 22.2449 22.7034 22.4413Z" fill="white"/>
<path d="M19.4202 26.1113C20.8544 26.8891 21.4679 28.0356 21.3062 29.6231C21.1466 32.3772 20.8254 35.1053 20.8212 37.8594C20.8017 39.2339 20.8931 40.6077 21.0948 41.9685C20.1767 38.613 20.4502 35.0752 20.7736 31.6576L20.9808 29.6051C21.2047 28.0697 20.7031 27.0193 19.416 26.1113H19.4202Z" fill="white"/>
<path d="M26.9104 21.3835C28.9001 20.8343 30.9665 20.3813 33.0474 20.4715C30.9748 20.6499 28.9623 21.0989 26.9104 21.3835Z" fill="white"/>
<path opacity="0.1" d="M26.9086 26.5848C24.6474 29.391 23.292 33.2155 23.0889 37.3607C22.6847 45.7793 27.203 52.851 33.1637 53.1376C39.1245 53.4243 44.3081 46.8096 44.7185 38.395C44.9257 34.2518 43.9371 30.3131 41.9598 27.3064C40.0551 24.416 37.4561 22.7523 34.6415 22.618C34.342 22.6 34.0415 22.6 33.742 22.618C31.2445 22.7984 28.8486 24.1775 26.9086 26.5848Z" fill="#EBEBEB"/>
<g opacity="0.2">
<path d="M38.3473 23.7487L23.0723 38.9483C23.0578 38.4232 23.0723 37.896 23.091 37.3588C23.1632 35.7906 23.412 34.2346 23.833 32.7185L33.9887 22.6182C34.1959 22.6182 34.426 22.6182 34.6457 22.6182C35.9578 22.6904 37.2303 23.0791 38.3473 23.7487Z" fill="white"/>
<path d="M43.6701 30.8162L25.881 48.5174C25.5538 48.0267 25.2576 47.5173 24.9939 46.992L42.9654 29.1084C43.2335 29.6643 43.4688 30.2345 43.6701 30.8162Z" fill="white"/>
<path d="M44.3622 41.3916C44.145 42.5335 43.8274 43.6554 43.413 44.745L35.1329 52.9833C34.4865 53.1182 33.8245 53.1701 33.164 53.1376C32.9774 53.1276 32.7909 53.1136 32.6064 53.0895L44.3622 41.3916Z" fill="white"/>
<path d="M44.3953 33.5404L27.4311 50.4198C27.3503 50.3437 27.2736 50.2635 27.199 50.1813L44.3165 33.1436C44.3476 33.2758 44.3704 33.4101 44.3953 33.5404Z" fill="white"/>
</g>
<path d="M57.0837 38.8675L58.7418 37.1256C56.0764 34.7404 49.8027 31.409 45.1021 35.8288L46.8099 37.5285C51.0214 33.5618 56.8371 38.651 57.0837 38.8675Z" fill="#F9B801"/>
<path d="M72.9472 57.6759C68.1624 56.8263 63.9219 54.1749 61.157 50.3039C58.392 46.4328 57.3288 41.6588 58.2007 37.0302C58.8538 33.5787 60.5504 30.3921 63.076 27.8732C65.6017 25.3543 68.8429 23.6162 72.3899 22.8787C75.9369 22.1413 79.6304 22.4375 83.0033 23.7301C86.3762 25.0226 89.2771 27.2534 91.3391 30.1403C93.4011 33.0272 94.5317 36.4407 94.5879 39.949C94.6441 43.4573 93.6234 46.903 91.6548 49.8503C89.6862 52.7976 86.8581 55.1141 83.5282 56.5071C80.1983 57.9 76.5161 58.3068 72.9472 57.6759ZM60.6132 37.4631C60.0228 40.6088 60.463 43.8543 61.8724 46.7463C63.2817 49.6383 65.5898 52.0324 68.4743 53.5942C71.3588 55.156 74.6757 55.8075 77.9617 55.4578C81.2476 55.108 84.3386 53.7745 86.8029 51.6434C89.2671 49.5123 90.9817 46.6901 91.707 43.5709C92.4323 40.4517 92.1322 37.1913 90.8486 34.2451C89.565 31.2988 87.3619 28.8139 84.5472 27.1373C81.7324 25.4607 78.4465 24.6762 75.1483 24.8933C71.6267 25.1313 68.287 26.4957 65.6555 28.7715C63.0239 31.0472 61.25 34.105 60.6132 37.4631Z" fill="#F9B801"/>
<path d="M92.5829 32.6446C91.3207 28.5916 83.9692 24.1357 83.9692 24.1357C86.9455 24.8433 90.2285 26.2825 91.8244 26.6032C92.7197 26.7816 98.1499 27.3188 98.1499 27.3188L98.1707 34.5187C98.1707 34.5187 96.6784 34.5989 96.3053 35.543C95.5053 37.5294 95.9095 38.0105 93.9363 44.9017C93.9177 44.9017 93.8265 36.6956 92.5829 32.6446Z" fill="#F9B801"/>
<g opacity="0.1">
<path d="M72.9472 57.6759C68.1624 56.8263 63.9219 54.1749 61.157 50.3039C58.392 46.4328 57.3288 41.6588 58.2007 37.0302C58.8538 33.5787 60.5504 30.3921 63.076 27.8732C65.6017 25.3543 68.8429 23.6162 72.3899 22.8787C75.9369 22.1413 79.6304 22.4375 83.0033 23.7301C86.3762 25.0226 89.2771 27.2534 91.3391 30.1403C93.4011 33.0272 94.5317 36.4407 94.5879 39.949C94.6441 43.4573 93.6234 46.903 91.6548 49.8503C89.6862 52.7976 86.8581 55.1141 83.5282 56.5071C80.1983 57.9 76.5161 58.3068 72.9472 57.6759ZM60.6132 37.4631C60.0228 40.6088 60.463 43.8543 61.8724 46.7463C63.2817 49.6383 65.5898 52.0324 68.4743 53.5942C71.3588 55.156 74.6757 55.8075 77.9617 55.4578C81.2476 55.108 84.3386 53.7745 86.8029 51.6434C89.2671 49.5123 90.9817 46.6901 91.707 43.5709C92.4323 40.4517 92.1322 37.1913 90.8486 34.2451C89.565 31.2988 87.3619 28.8139 84.5472 27.1373C81.7324 25.4607 78.4465 24.6762 75.1483 24.8933C71.6267 25.1313 68.287 26.4957 65.6555 28.7715C63.0239 31.0472 61.25 34.105 60.6132 37.4631Z" fill="black"/>
<path d="M92.5829 32.6446C91.3207 28.5916 83.9692 24.1357 83.9692 24.1357C86.9455 24.8433 90.2285 26.2825 91.8244 26.6032C92.7197 26.7816 98.1499 27.3188 98.1499 27.3188L98.1707 34.5187C98.1707 34.5187 96.6784 34.5989 96.3053 35.543C95.5053 37.5294 95.9095 38.0105 93.9363 44.9017C93.9177 44.9017 93.8265 36.6956 92.5829 32.6446Z" fill="black"/>
</g>
<path d="M71.316 57.4173C66.5351 56.5676 62.2977 53.9188 59.5333 50.0518C56.7689 46.1849 55.703 41.4155 56.5695 36.7896C57.2183 33.3344 58.9124 30.1429 61.4374 27.6191C63.9624 25.0953 67.2048 23.3526 70.7543 22.6116C74.3037 21.8705 78.0007 22.1645 81.3774 23.4562C84.754 24.7479 87.6586 26.9792 89.7235 29.868C91.7884 32.7567 92.9208 36.1729 92.9775 39.6843C93.0342 43.1956 92.0125 46.6444 90.0418 49.594C88.0711 52.5436 85.24 54.8616 81.9066 56.2546C78.5733 57.6475 74.8876 58.0529 71.316 57.4193V57.4173ZM58.982 37.2146C58.389 40.3628 58.8277 43.6115 60.2369 46.5067C61.6462 49.402 63.9554 51.7992 66.842 53.3633C69.7286 54.9274 73.0484 55.5803 76.3374 55.2308C79.6264 54.8813 82.7203 53.5468 85.1869 51.4138C87.6534 49.2808 89.3693 46.4558 90.0948 43.3337C90.8203 40.2116 90.5192 36.9482 89.2334 33.9997C87.9477 31.0512 85.7417 28.5647 82.9236 26.8879C80.1054 25.211 76.816 24.4275 73.515 24.6467C69.9941 24.8851 66.6551 26.2494 64.024 28.5247C61.3929 30.8001 59.6191 33.8571 58.982 37.2146Z" fill="#F9B801"/>
<path d="M90.9418 32.3956C89.6796 28.3426 82.3281 23.8867 82.3281 23.8867C85.3044 24.5943 88.5874 26.0335 90.1833 26.3542C91.0786 26.5326 96.5088 27.0698 96.5088 27.0698L96.5295 33.6624C96.5295 33.6624 95.0373 34.0993 94.6642 35.0414C93.8621 37.0278 94.2663 37.7615 92.2932 44.6627C92.2869 44.6467 92.204 36.4465 90.9418 32.3956Z" fill="#F9B801"/>
<path d="M94.183 30.0299C94.1332 30.3847 93.4513 30.5891 92.6596 30.4869C91.8679 30.3847 91.2627 30.0159 91.3124 29.6611C91.3622 29.3063 92.0441 29.1018 92.8358 29.2041C93.6275 29.3063 94.241 29.6771 94.183 30.0299Z" fill="#A6A6A6"/>
<path d="M91.6606 29.6759C91.7249 29.5056 92.4151 29.3111 93.1695 29.5096Z" fill="white"/>
<path d="M66.2258 25.1772C67.7974 24.0197 69.7221 23.3999 71.6975 23.4153C69.8322 23.9445 68.0373 24.5178 66.2258 25.1772Z" fill="white"/>
<path d="M58.4639 34.0234C59.3924 30.4375 62.493 26.9778 65.9066 25.3643C62.7106 27.5691 60.0307 30.5277 58.4639 34.0234Z" fill="white"/>
<path opacity="0.1" d="M59.7386 37.2144C58.2049 45.5469 63.7967 53.5646 72.2073 55.086C80.6179 56.6074 88.7052 51.0631 90.2389 42.7327C91.7726 34.4022 86.1787 26.3804 77.7681 24.8611C76.5034 24.6308 75.2133 24.5587 73.9296 24.6466C67.0217 25.1176 61.036 30.1688 59.7386 37.2144Z" fill="#EBEBEB"/>
<g opacity="0.2">
<path d="M90.4772 40.6818L75.7016 55.3142C74.5313 55.3664 73.3587 55.287 72.2073 55.0777C71.7089 54.9883 71.2156 54.8739 70.7295 54.7349L89.8886 35.7549C90.3568 37.356 90.5555 39.0196 90.4772 40.6818Z" fill="white"/>
<path d="M76.9761 24.7385L59.6139 41.9446C59.4085 40.3708 59.4504 38.7759 59.7383 37.2142C59.8088 36.8253 59.8979 36.4384 59.9974 36.0596L71.0277 25.1214C71.9766 24.8718 72.9484 24.7127 73.9293 24.6463C74.9455 24.5756 75.9665 24.6065 76.9761 24.7385Z" fill="white"/>
<path d="M87.9589 31.5758L66.5096 52.8228C66.0197 52.5076 65.5497 52.1642 65.1023 51.7945L86.9247 30.1807C87.2971 30.6259 87.6424 31.0917 87.9589 31.5758Z" fill="white"/>
<path d="M81.2477 25.9154L60.8078 46.1602C60.5509 45.5845 60.3308 44.9941 60.1487 44.3923L79.4632 25.2539C80.0717 25.4383 80.6676 25.6593 81.2477 25.9154Z" fill="white"/>
<path d="M90.2784 42.5195C90.268 42.5897 90.2535 42.6618 90.241 42.732C90.2203 42.8563 90.1954 42.9806 90.1685 43.1008L78.1475 55.0152C77.9547 55.0553 77.7578 55.0914 77.5588 55.1235L90.2784 42.5195Z" fill="white"/>
<path d="M85.7038 28.878L63.7923 50.5901C63.7136 50.5099 63.6369 50.4277 63.5623 50.3455L85.4592 28.6475L85.7038 28.878Z" fill="white"/>
</g>
</svg>
